<svg xmlns="http://www.w3.org/2000/svg" viewBox="0 0 64 80" x="0px" y="0px"><g><path d="M51.757,27a5.211,5.211,0,0,0-3.707,1.535l-5.344,5.344a1.021,1.021,0,0,1-1.414,0A1.009,1.009,0,0,1,41,33.172V7A5,5,0,0,0,31,7V18.026a4.933,4.933,0,0,0-7,1.005,4.933,4.933,0,0,0-7-1.005V12A5,5,0,0,0,7,12V41.687a8.936,8.936,0,0,0,2.635,6.362l.314.315A6.952,6.952,0,0,1,12,53.313V61a1,1,0,0,0,1,1H40a1,1,0,0,0,1-1V53.313a6.952,6.952,0,0,1,2.05-4.949L55.464,35.95A5.243,5.243,0,0,0,51.757,27ZM28,19a3,3,0,0,1,3,3V32a3,3,0,0,1-6,0V22A3,3,0,0,1,28,19Zm-8,0a3,3,0,0,1,3,3v8a3,3,0,0,1-6,0V22A3,3,0,0,1,20,19ZM54.05,34.535,41.636,46.95A8.937,8.937,0,0,0,39,53.313V60H14V53.313a8.936,8.936,0,0,0-2.635-6.362l-.314-.315A6.952,6.952,0,0,1,9,41.687V12a3,3,0,0,1,6,0V30a4.986,4.986,0,0,0,5.969,4.9c.1-.021.2-.06.3-.087a4.975,4.975,0,0,0,.6-.187c.114-.046.218-.108.328-.162a4.98,4.98,0,0,0,.5-.27c.108-.07.205-.15.307-.227s.211-.142.305-.226c.015.041.038.077.054.117.034.083.074.161.112.242a4.964,4.964,0,0,0,.3.553c.051.081.1.16.157.237a5.023,5.023,0,0,0,.43.521c.046.049.086.1.134.149a5.024,5.024,0,0,0,.67.553c.056.039.117.069.175.105a4.973,4.973,0,0,0,.594.323c.089.04.178.075.269.111a4.944,4.944,0,0,0,.606.189c.09.022.177.047.269.065A4.961,4.961,0,0,0,33,32V7a3,3,0,0,1,6,0V33.172a2.981,2.981,0,0,0,.878,2.121,3.073,3.073,0,0,0,4.243,0l5.343-5.343a3.243,3.243,0,1,1,4.586,4.585Z"/></g></svg>